<mxfile host="app.diagrams.net" modified="2023-05-31T04:18:18.911Z" agent="Mozilla/5.0 (Windows NT 10.0; Win64; x64) AppleWebKit/537.36 (KHTML, like Gecko) Chrome/113.0.0.0 Safari/537.36" version="21.3.2" etag="GvmqP8YsyBK1Qs-dCPH_" type="github">
  <diagram name="PÃ¡gina-1" id="jQn_1i53jEn2YjvOQCZG">
    <mxGraphModel>
      <root>
        <mxCell id="0" />
        <mxCell id="1" parent="0" />
      </root>
    </mxGraphModel>
  </diagram>
</mxfile>
